<svg xmlns="http://www.w3.org/2000/svg" version="1.1" xmlns:xlink="http://www.w3.org/1999/xlink" xmlns:svgjs="http://svgjs.dev/svgjs" width="1000" height="1000" viewBox="0 0 1000 1000"><rect width="1000" height="1000" fill="#333366"></rect><g transform="matrix(0.7,0,0,0.7,150.21340297491793,261.49327935222675)"><svg viewBox="0 0 362 247" data-background-color="#333366" preserveAspectRatio="xMidYMid meet" height="682" width="1000" xmlns="http://www.w3.org/2000/svg" xmlns:xlink="http://www.w3.org/1999/xlink"><g id="tight-bounds" transform="matrix(1,0,0,1,-0.11035982417183732,-0.09999999999999432)"><svg viewBox="0 0 362.2207196483437 247.2" height="247.2" width="362.2207196483437"><g><svg viewBox="0 0 397.4975999999999 271.27494753860447" height="247.2" width="362.2207196483437"><g><rect width="397.4975999999999" height="5.801205529459136" x="0" y="143.81714364649378" fill="#ffff33" opacity="1" stroke-width="0" stroke="transparent" fill-opacity="1" class="rect-qz-0" data-fill-palette-color="primary" rx="1%" id="qz-0" data-palette-color="#ffff33"></rect></g><g><rect width="397.4975999999999" height="5.801205529459136" x="0" y="157.21155013074235" fill="#ffff33" opacity="1" stroke-width="0" stroke="transparent" fill-opacity="1" class="rect-qz-1" data-fill-palette-color="primary" rx="1%" id="qz-1" data-palette-color="#ffff33"></rect></g><g transform="matrix(1,0,0,1,0.9887999999999693,178.19915756978037)"><svg viewBox="0 0 395.52 93.0757899688241" height="93.0757899688241" width="395.52"><g id="textblocktransform"><svg viewBox="0 0 395.52 93.0757899688241" height="93.0757899688241" width="395.52" id="textblock"><g><svg viewBox="0 0 395.52 64.32844469399214" height="64.32844469399214" width="395.52"><g transform="matrix(1,0,0,1,0,0)"><svg width="395.52" viewBox="4.3 -41.94 260.87 42.43" height="64.32844469399214" data-palette-color="#ffff33"><path d="M29.42-36.06L28.44-32.28Q22.56-34.33 17.14-34.33L17.14-34.33Q11.55-34.33 9.86-29.74L9.86-29.74Q8.86-27.03 8.75-23.57 8.64-20.12 8.64-17.6L8.64-17.6 8.64-15.19Q8.64-7.4 11.25-4.86L11.25-4.86Q12.82-3.34 15.43-3.08L15.43-3.08Q16.65-2.93 17.94-2.93 19.24-2.93 20.45-3.06 21.66-3.2 22.75-3.42L22.75-3.42Q24.98-3.86 26.07-4.39L26.07-4.39 26.07-15.92 18.53-15.92 18.53-19.29 30.15-19.29 30.15-2.56Q27.86-0.83 22.02 0.15L22.02 0.15Q20 0.49 17.41 0.49 14.82 0.49 12.66-0.04 10.5-0.56 9-1.57 7.5-2.59 6.57-4.1 5.64-5.62 5.13-7.59L5.13-7.59Q4.3-10.91 4.3-15.78 4.3-20.65 4.47-23.47 4.64-26.29 5.14-28.58 5.64-30.86 6.54-32.59 7.45-34.33 8.91-35.5L8.91-35.5Q11.89-37.84 17.41-37.84L17.41-37.84Q23.71-37.84 28.17-36.45L28.17-36.45 29.42-36.06ZM39.67 0L39.62-41.5 43.65-41.85 43.65 0 39.67 0ZM54.56-14.45L54.56-14.45Q54.56-20 55.12-22.19 55.68-24.39 56.5-25.67 57.32-26.95 58.71-27.81L58.71-27.81Q61.49-29.54 66.94-29.54L66.94-29.54Q74.8-29.54 77.05-25.66L77.05-25.66Q78.39-23.32 78.58-19.04L78.58-19.04Q78.66-17.02 78.66-14.58 78.66-12.13 78.5-10.02 78.34-7.91 77.88-6.23 77.41-4.54 76.58-3.28 75.75-2.03 74.38-1.17L74.38-1.17Q71.7 0.49 66.55 0.49L66.55 0.49Q58.83 0.49 56.42-3.32L56.42-3.32Q54.93-5.69 54.68-9.96L54.68-9.96Q54.56-12.01 54.56-14.45ZM61.2-4.27Q62.08-3.61 63.41-3.28 64.74-2.95 67.05-2.95 69.36-2.95 70.93-3.61 72.5-4.27 73.3-5.73 74.09-7.18 74.3-9.5 74.51-11.82 74.51-14.89 74.51-17.97 74.32-20.02 74.14-22.07 73.41-23.41L73.41-23.41Q71.94-26.05 66.89-26.05L66.89-26.05Q61.54-26.05 59.93-23.41L59.93-23.41Q59.13-22.07 58.91-20 58.69-17.92 58.69-15.48 58.69-13.04 58.75-11.34 58.81-9.64 59.06-8.29 59.32-6.93 59.82-5.93 60.32-4.93 61.2-4.27ZM92.5-2.71L92.5-2.71 91.98 0 88.54 0 88.54-41.55 92.6-41.94 92.6-26.27Q97.65-29.54 102.36-29.54L102.36-29.54Q108.9-29.54 110.66-25.51L110.66-25.51Q111.76-22.97 111.91-18.38L111.91-18.38Q111.96-16.16 111.96-13.5L111.96-13.5 111.96-11.55Q111.96-8.2 111.53-6.52 111.1-4.83 110.44-3.63 109.78-2.42 108.64-1.51L108.64-1.51Q106.14 0.49 101.51 0.49 96.87 0.49 92.5-2.71ZM92.6-23.05L92.6-5.91Q97.77-3.1 101.31-3.1L101.31-3.1 101.6-3.1Q105.78-3.1 106.97-5.42L106.97-5.42Q107.61-6.59 107.76-8.47 107.9-10.35 107.9-12.99L107.9-12.99 107.9-16.5Q107.9-21.95 106.66-23.83L106.66-23.83Q105.44-25.71 102.02-25.71L102.02-25.71 101.41-25.71Q98.36-25.71 94.33-23.9L94.33-23.9Q93.28-23.44 92.6-23.05L92.6-23.05ZM143.54-5.03L144.74-1.54Q139.69 0.49 133.58 0.49L133.58 0.49Q130.04 0.49 127.58-0.24L127.58-0.24Q123.65-1.37 122.35-4.88L122.35-4.88Q121.16-8.18 121.16-14.65L121.16-14.65 121.16-15.89Q121.16-23.63 124.38-26.76L124.38-26.76Q127.28-29.54 134.07-29.54L134.07-29.54Q140.69-29.54 143.11-26.27L143.11-26.27Q144.28-24.68 144.66-22.42 145.03-20.17 145.03-18.12L145.03-18.12Q145.03-14.92 144.89-13.16L144.89-13.16Q141.45-13.01 138.71-13.01L138.71-13.01Q138.71-13.01 134.78-13.01L134.78-13.01Q128.63-13.01 125.31-13.55L125.31-13.55Q125.31-7.93 126.72-5.71L126.72-5.71Q128.46-3 133.63-3 138.81-3 143.54-5.03L143.54-5.03ZM125.31-16.41L140.91-16.41 140.91-18.75Q140.91-22.58 139.42-24.22L139.42-24.22Q137.76-26.05 133.68-26.05L133.68-26.05Q128.8-26.05 127.02-23.93L127.02-23.93Q125.31-21.9 125.31-16.41L125.31-16.41ZM179.26-36.06L178.28-32.28Q172.4-34.33 166.98-34.33L166.98-34.33Q161.39-34.33 159.7-29.74L159.7-29.74Q158.7-27.03 158.59-23.57 158.48-20.12 158.48-17.6L158.48-17.6 158.48-15.19Q158.48-7.4 161.1-4.86L161.1-4.86Q162.66-3.34 165.27-3.08L165.27-3.08Q166.49-2.93 167.79-2.93 169.08-2.93 170.29-3.06 171.5-3.2 172.59-3.42L172.59-3.42Q174.82-3.86 175.92-4.39L175.92-4.39 175.92-15.92 168.37-15.92 168.37-19.29 179.99-19.29 179.99-2.56Q177.7-0.83 171.86 0.15L171.86 0.15Q169.84 0.49 167.25 0.49 164.66 0.49 162.5-0.04 160.34-0.56 158.84-1.57 157.34-2.59 156.41-4.1 155.48-5.62 154.97-7.59L154.97-7.59Q154.14-10.91 154.14-15.78 154.14-20.65 154.31-23.47 154.48-26.29 154.98-28.58 155.48-30.86 156.38-32.59 157.29-34.33 158.75-35.5L158.75-35.5Q161.73-37.84 167.25-37.84L167.25-37.84Q173.55-37.84 178.01-36.45L178.01-36.45 179.26-36.06ZM210.56-29.05L210.56-12.79Q210.56-4.74 211.02-0.2L211.02-0.2 207.38 0.1 206.8-3.34Q203.94-0.98 200.13 0.07L200.13 0.07Q198.62 0.49 196.53 0.49 194.44 0.49 192.8-0.01 191.15-0.51 190.17-1.61L190.17-1.61Q188.39-3.59 188.39-8.81L188.39-8.81 188.39-29.05 192.49-29.05 192.49-9.47Q192.49-5.96 193.17-4.94 193.86-3.93 194.8-3.58 195.74-3.22 197.03-3.22 198.32-3.22 199.53-3.43 200.74-3.64 201.96-4.03L201.96-4.03Q204.53-4.86 206.6-6.3L206.6-6.3 206.6-6.32Q206.5-8.18 206.5-13.55L206.5-13.55 206.5-29.05 210.56-29.05ZM232.31-25.51L232.31-25.51Q229.18-25.51 225.93-22.39L225.93-22.39 225.93 0 221.88 0 221.88-29.05 225.45-29.05 225.84-25.2Q226.98-26.98 228.32-27.98 229.65-28.98 230.5-29.2L230.5-29.2Q231.72-29.54 232.82-29.54 233.92-29.54 235.58-29.1L235.58-29.1 235.21-25.22Q233.97-25.51 232.31-25.51ZM264.7-29.05L264.7-12.79Q264.7-4.74 265.17-0.2L265.17-0.2 261.53 0.1 260.94-3.34Q258.09-0.98 254.28 0.07L254.28 0.07Q252.76 0.49 250.68 0.49 248.59 0.49 246.94-0.01 245.29-0.51 244.32-1.61L244.32-1.61Q242.53-3.59 242.53-8.81L242.53-8.81 242.53-29.05 246.64-29.05 246.64-9.47Q246.64-5.96 247.32-4.94 248-3.93 248.94-3.58 249.88-3.22 251.18-3.22 252.47-3.22 253.68-3.43 254.89-3.64 256.11-4.03L256.11-4.03Q258.67-4.86 260.75-6.3L260.75-6.3 260.75-6.32Q260.65-8.18 260.65-13.55L260.65-13.55 260.65-29.05 264.7-29.05Z" opacity="1" transform="matrix(1,0,0,1,0,0)" fill="#ffff33" class="wordmark-text-0" data-fill-palette-color="primary" id="text-0"></path></svg></g></svg></g><g transform="matrix(1,0,0,1,75.54432,79.51484660357103)"><svg viewBox="0 0 244.43135999999998 13.560943365253078" height="13.560943365253078" width="244.43135999999998"><g transform="matrix(1,0,0,1,0,0)"><svg width="244.43135999999998" viewBox="4.6 -36 657.84 36.5" height="13.560943365253078" data-palette-color="#ffffff"><path d="M4.6-34.3L9.5-34.3 9.5-4.45 25.25-4.45 25.95 0 4.6 0 4.6-34.3ZM41.2-26.05Q44.35-26.05 46.77-24.73 49.2-23.4 50.55-20.95 51.9-18.5 51.9-15.25L51.9-15.25 51.9-11.7 34.05-11.7Q34.15-7.65 35.95-5.45 37.75-3.25 41.3-3.25L41.3-3.25Q44.45-3.25 45.95-5.1 47.45-6.95 47.45-9.5L47.45-9.5 51.9-9.5Q51.9-6.5 50.52-4.25 49.15-2 46.72-0.75 44.3 0.5 41.2 0.5L41.2 0.5 41 0.5Q35.6 0.5 32.47-2.98 29.35-6.45 29.35-12.25L29.35-12.25 29.35-13.25Q29.35-17.05 30.75-19.95 32.15-22.85 34.75-24.45 37.35-26.05 40.85-26.05L40.85-26.05 41.2-26.05ZM40.95-22.3Q38.1-22.3 36.32-20.55 34.55-18.8 34.15-15.35L34.15-15.35 47.25-15.35 47.25-15.95Q47.25-18.8 45.52-20.55 43.8-22.3 40.95-22.3L40.95-22.3ZM68.8-26.05Q73.84-26.05 76.32-24.05 78.8-22.05 78.8-18.25L78.8-18.25 78.8-5Q78.8-4.1 79.19-3.68 79.59-3.25 80.19-3.25L80.19-3.25Q81.34-3.25 82.5-3.95L82.5-3.95 82.5-0.5Q80.8 0.5 78.64 0.5L78.64 0.5Q76.5 0.5 75.44-0.73 74.39-1.95 74.3-4.1L74.3-4.1Q71.19 0.5 65.34 0.5L65.34 0.5Q61.14 0.5 59.07-1.33 56.99-3.15 56.99-7.1L56.99-7.1Q56.99-10.2 58.59-11.98 60.2-13.75 63.89-14.55 67.59-15.35 74.09-15.35L74.09-15.35 74.09-17.7Q74.09-20.25 72.59-21.28 71.09-22.3 68.25-22.3L68.25-22.3Q65.55-22.3 64.05-21.25 62.55-20.2 62.55-18.3L62.55-18.3 62.55-17.7 57.95-17.7Q57.84-18.4 57.84-19.35L57.84-19.35Q57.84-21.1 59.24-22.65 60.64-24.2 63.05-25.13 65.44-26.05 68.34-26.05L68.34-26.05 68.8-26.05ZM74.09-11.7Q68.84-11.7 66.17-11.18 63.49-10.65 62.59-9.6 61.7-8.55 61.7-6.7L61.7-6.7Q61.7-3.25 66.94-3.25L66.94-3.25Q68.8-3.25 70.44-4.17 72.09-5.1 73.09-6.8 74.09-8.5 74.09-10.7L74.09-10.7 74.09-11.7ZM99.49-26.05Q103.04-26.05 105.04-23.78 107.04-21.5 107.04-18.05L107.04-18.05 106.89-16.15 102.74-16.15 102.74-17.25Q102.74-18.75 101.99-19.9 101.24-21.05 100.09-21.68 98.94-22.3 97.79-22.3L97.79-22.3Q95.39-22.3 94.04-20.4 92.69-18.5 92.69-15.25L92.69-15.25 92.69 0 87.99 0 87.99-25.55 91.34-25.55 92.04-21.75Q92.34-22.75 93.39-23.75 94.44-24.75 96.02-25.4 97.59-26.05 99.49-26.05L99.49-26.05ZM125.09-26.05Q129.29-26.05 131.69-23.8 134.09-21.55 134.09-17.2L134.09-17.2 134.09 0 129.39 0 129.39-16.35Q129.39-22.3 123.99-22.3L123.99-22.3Q122.19-22.3 120.64-21.35 119.09-20.4 118.14-18.78 117.19-17.15 117.19-15.2L117.19-15.2 117.19 0 112.49 0 112.49-25.55 115.89-25.55 116.54-21.8Q119.74-26.05 125.09-26.05L125.09-26.05ZM181.28-26.05Q185.24-26.05 187.44-23.75 189.63-21.45 189.63-17.2L189.63-17.2 189.63 0 184.94 0 184.94-16.35Q184.94-22.3 180.34-22.3L180.34-22.3Q178.74-22.3 177.36-21.35 175.99-20.4 175.16-18.78 174.34-17.15 174.34-15.2L174.34-15.2 174.34 0 169.63 0 169.63-16.35Q169.63-22.3 165.03-22.3L165.03-22.3Q163.44-22.3 162.06-21.35 160.69-20.4 159.86-18.78 159.03-17.15 159.03-15.2L159.03-15.2 159.03 0 154.34 0 154.34-25.55 157.74-25.55 158.38-21.8Q161.28-26.05 166.44-26.05L166.44-26.05Q171.49-26.05 173.44-21.8L173.44-21.8Q175.13-24.2 177.09-25.13 179.03-26.05 181.28-26.05L181.28-26.05ZM207.88-26.05Q213.23-26.05 216.43-22.75 219.63-19.45 219.63-13.7L219.63-13.7 219.63-11.85Q219.63-6.1 216.48-2.8 213.33 0.5 207.88 0.5L207.88 0.5Q202.43 0.5 199.28-2.8 196.13-6.1 196.13-11.85L196.13-11.85 196.13-13.7Q196.13-19.45 199.33-22.75 202.53-26.05 207.88-26.05L207.88-26.05ZM207.88-22.3Q204.53-22.3 202.68-20 200.83-17.7 200.83-13.25L200.83-13.25 200.83-12.3Q200.83-7.95 202.66-5.6 204.48-3.25 207.88-3.25L207.88-3.25Q211.18-3.25 213.06-5.58 214.93-7.9 214.93-12.3L214.93-12.3 214.93-13.25Q214.93-17.6 213.11-19.95 211.28-22.3 207.88-22.3L207.88-22.3ZM237.88-26.05Q241.43-26.05 243.43-23.78 245.43-21.5 245.43-18.05L245.43-18.05 245.28-16.15 241.13-16.15 241.13-17.25Q241.13-18.75 240.38-19.9 239.63-21.05 238.48-21.68 237.33-22.3 236.18-22.3L236.18-22.3Q233.78-22.3 232.43-20.4 231.08-18.5 231.08-15.25L231.08-15.25 231.08 0 226.38 0 226.38-25.55 229.73-25.55 230.43-21.75Q230.73-22.75 231.78-23.75 232.83-24.75 234.41-25.4 235.98-26.05 237.88-26.05L237.88-26.05ZM261.13-26.05Q264.28-26.05 266.7-24.73 269.13-23.4 270.48-20.95 271.83-18.5 271.83-15.25L271.83-15.25 271.83-11.7 253.98-11.7Q254.08-7.65 255.88-5.45 257.68-3.25 261.23-3.25L261.23-3.25Q264.38-3.25 265.88-5.1 267.38-6.95 267.38-9.5L267.38-9.5 271.83-9.5Q271.83-6.5 270.45-4.25 269.08-2 266.65-0.75 264.23 0.5 261.13 0.5L261.13 0.5 260.93 0.5Q255.53 0.5 252.4-2.98 249.28-6.45 249.28-12.25L249.28-12.25 249.28-13.25Q249.28-17.05 250.68-19.95 252.08-22.85 254.68-24.45 257.28-26.05 260.78-26.05L260.78-26.05 261.13-26.05ZM260.88-22.3Q258.03-22.3 256.25-20.55 254.48-18.8 254.08-15.35L254.08-15.35 267.18-15.35 267.18-15.95Q267.18-18.8 265.45-20.55 263.73-22.3 260.88-22.3L260.88-22.3ZM300.92-26.05Q305.97-26.05 308.45-24.05 310.92-22.05 310.92-18.25L310.92-18.25 310.92-5Q310.92-4.1 311.32-3.68 311.72-3.25 312.32-3.25L312.32-3.25Q313.47-3.25 314.62-3.95L314.62-3.95 314.62-0.5Q312.92 0.5 310.77 0.5L310.77 0.5Q308.62 0.5 307.57-0.73 306.52-1.95 306.42-4.1L306.42-4.1Q303.32 0.5 297.47 0.5L297.47 0.5Q293.27 0.5 291.2-1.33 289.12-3.15 289.12-7.1L289.12-7.1Q289.12-10.2 290.72-11.98 292.32-13.75 296.02-14.55 299.72-15.35 306.22-15.35L306.22-15.35 306.22-17.7Q306.22-20.25 304.72-21.28 303.22-22.3 300.37-22.3L300.37-22.3Q297.67-22.3 296.17-21.25 294.67-20.2 294.67-18.3L294.67-18.3 294.67-17.7 290.07-17.7Q289.97-18.4 289.97-19.35L289.97-19.35Q289.97-21.1 291.37-22.65 292.77-24.2 295.17-25.13 297.57-26.05 300.47-26.05L300.47-26.05 300.92-26.05ZM306.22-11.7Q300.97-11.7 298.3-11.18 295.62-10.65 294.72-9.6 293.82-8.55 293.82-6.7L293.82-6.7Q293.82-3.25 299.07-3.25L299.07-3.25Q300.92-3.25 302.57-4.17 304.22-5.1 305.22-6.8 306.22-8.5 306.22-10.7L306.22-10.7 306.22-11.7ZM324.82-36L324.82-22.3Q325.97-23.95 327.95-25 329.92-26.05 332.22-26.05L332.22-26.05Q337.12-26.05 339.82-22.63 342.52-19.2 342.52-13.35L342.52-13.35 342.52-12.8Q342.52-6.6 339.75-3.05 336.97 0.5 332.17 0.5L332.17 0.5Q326.47 0.5 323.57-4.05L323.57-4.05 321.92 0 320.12 0 320.12-36 324.82-36ZM331.27-22.3Q327.92-22.3 326.35-19.98 324.77-17.65 324.77-12.75L324.77-12.75Q324.77-7.85 326.37-5.55 327.97-3.25 331.27-3.25L331.27-3.25Q337.82-3.25 337.82-12.75L337.82-12.75Q337.82-17.65 336.17-19.98 334.52-22.3 331.27-22.3L331.27-22.3ZM359.47-26.05Q364.82-26.05 368.02-22.75 371.22-19.45 371.22-13.7L371.22-13.7 371.22-11.85Q371.22-6.1 368.07-2.8 364.92 0.5 359.47 0.5L359.47 0.5Q354.02 0.5 350.87-2.8 347.72-6.1 347.72-11.85L347.72-11.85 347.72-13.7Q347.72-19.45 350.92-22.75 354.12-26.05 359.47-26.05L359.47-26.05ZM359.47-22.3Q356.12-22.3 354.27-20 352.42-17.7 352.42-13.25L352.42-13.25 352.42-12.3Q352.42-7.95 354.24-5.6 356.07-3.25 359.47-3.25L359.47-3.25Q362.77-3.25 364.64-5.58 366.52-7.9 366.52-12.3L366.52-12.3 366.52-13.25Q366.52-17.6 364.69-19.95 362.87-22.3 359.47-22.3L359.47-22.3ZM399.31-25.55L399.31-5Q399.31-4.1 399.71-3.68 400.12-3.25 400.71-3.25L400.71-3.25Q401.81-3.25 402.96-3.95L402.96-3.95 402.96-0.5Q401.42 0.5 399.81 0.5L399.81 0.5Q397.12 0.5 396.04-0.6 394.96-1.7 394.87-3.7L394.87-3.7Q393.51-1.7 391.39-0.6 389.26 0.5 386.51 0.5L386.51 0.5Q382.67 0.5 380.19-1.78 377.71-4.05 377.71-8.35L377.71-8.35 377.71-25.55 382.42-25.55 382.42-9.2Q382.42-3.25 387.81-3.25L387.81-3.25Q389.56-3.25 391.14-4.2 392.71-5.15 393.67-6.78 394.62-8.4 394.62-10.35L394.62-10.35 394.62-25.55 399.31-25.55ZM414.36-33.7L414.36-25.55 420.31-25.55 420.31-21.8 414.36-21.8 414.36-6.55Q414.36-4.75 415.06-3.95 415.76-3.15 417.21-3.15L417.21-3.15Q418.51-3.15 420.31-3.9L420.31-3.9 420.31-0.4Q418.51 0.5 415.66 0.5L415.66 0.5Q412.71 0.5 411.19-1.25 409.66-3 409.66-6.8L409.66-6.8 409.66-21.8 406.86-21.8 406.86-25.55 409.81-25.55 411.41-33.7 414.36-33.7ZM448.56-26.05Q453.91-26.05 457.11-22.75 460.31-19.45 460.31-13.7L460.31-13.7 460.31-11.85Q460.31-6.1 457.16-2.8 454.01 0.5 448.56 0.5L448.56 0.5Q443.11 0.5 439.96-2.8 436.81-6.1 436.81-11.85L436.81-11.85 436.81-13.7Q436.81-19.45 440.01-22.75 443.21-26.05 448.56-26.05L448.56-26.05ZM448.56-22.3Q445.21-22.3 443.36-20 441.51-17.7 441.51-13.25L441.51-13.25 441.51-12.3Q441.51-7.95 443.33-5.6 445.16-3.25 448.56-3.25L448.56-3.25Q451.86-3.25 453.73-5.58 455.61-7.9 455.61-12.3L455.61-12.3 455.61-13.25Q455.61-17.6 453.78-19.95 451.96-22.3 448.56-22.3L448.56-22.3ZM488.4-25.55L488.4-5Q488.4-4.1 488.8-3.68 489.2-3.25 489.8-3.25L489.8-3.25Q490.9-3.25 492.05-3.95L492.05-3.95 492.05-0.5Q490.5 0.5 488.9 0.5L488.9 0.5Q486.2 0.5 485.13-0.6 484.05-1.7 483.95-3.7L483.95-3.7Q482.6-1.7 480.48-0.6 478.35 0.5 475.6 0.5L475.6 0.5Q471.75 0.5 469.28-1.78 466.8-4.05 466.8-8.35L466.8-8.35 466.8-25.55 471.5-25.55 471.5-9.2Q471.5-3.25 476.9-3.25L476.9-3.25Q478.65-3.25 480.23-4.2 481.8-5.15 482.75-6.78 483.7-8.4 483.7-10.35L483.7-10.35 483.7-25.55 488.4-25.55ZM509.45-26.05Q513-26.05 515-23.78 517-21.5 517-18.05L517-18.05 516.85-16.15 512.7-16.15 512.7-17.25Q512.7-18.75 511.95-19.9 511.2-21.05 510.05-21.68 508.9-22.3 507.75-22.3L507.75-22.3Q505.35-22.3 504-20.4 502.65-18.5 502.65-15.25L502.65-15.25 502.65 0 497.95 0 497.95-25.55 501.3-25.55 502-21.75Q502.3-22.75 503.35-23.75 504.4-24.75 505.98-25.4 507.55-26.05 509.45-26.05L509.45-26.05ZM565.35-25.55L569.95-25.55 561.6 0 556.7 0 550.8-17.85 550.6-17.85 544.8 0 539.9 0 531.5-25.55 536.35-25.55 542.3-6.85 542.5-6.85 548.55-25.55 553.15-25.55 559.1-6.85 559.3-6.85 565.35-25.55ZM585.19-26.05Q590.54-26.05 593.74-22.75 596.94-19.45 596.94-13.7L596.94-13.7 596.94-11.85Q596.94-6.1 593.79-2.8 590.64 0.5 585.19 0.5L585.19 0.5Q579.74 0.5 576.59-2.8 573.44-6.1 573.44-11.85L573.44-11.85 573.44-13.7Q573.44-19.45 576.64-22.75 579.84-26.05 585.19-26.05L585.19-26.05ZM585.19-22.3Q581.84-22.3 579.99-20 578.14-17.7 578.14-13.25L578.14-13.25 578.14-12.3Q578.14-7.95 579.97-5.6 581.79-3.25 585.19-3.25L585.19-3.25Q588.49-3.25 590.37-5.58 592.24-7.9 592.24-12.3L592.24-12.3 592.24-13.25Q592.24-17.6 590.42-19.95 588.59-22.3 585.19-22.3L585.19-22.3ZM615.19-26.05Q618.74-26.05 620.74-23.78 622.74-21.5 622.74-18.05L622.74-18.05 622.59-16.15 618.44-16.15 618.44-17.25Q618.44-18.75 617.69-19.9 616.94-21.05 615.79-21.68 614.64-22.3 613.49-22.3L613.49-22.3Q611.09-22.3 609.74-20.4 608.39-18.5 608.39-15.25L608.39-15.25 608.39 0 603.69 0 603.69-25.55 607.04-25.55 607.74-21.75Q608.04-22.75 609.09-23.75 610.14-24.75 611.72-25.4 613.29-26.05 615.19-26.05L615.19-26.05ZM628.39-36L633.09-36 633.09 0 628.39 0 628.39-36ZM662.44-36L662.44 0 658.94 0Q658.59-1.6 658.29-3.5L658.29-3.5Q655.44 0.5 650.39 0.5L650.39 0.5Q645.59 0.5 642.81-3.05 640.04-6.6 640.04-12.8L640.04-12.8 640.04-13.35Q640.04-19.2 642.76-22.63 645.49-26.05 650.39-26.05L650.39-26.05Q655.14-26.05 657.74-22.3L657.74-22.3 657.74-36 662.44-36ZM651.24-22.3Q647.89-22.3 646.31-19.98 644.74-17.65 644.74-12.75L644.74-12.75Q644.74-7.85 646.34-5.55 647.94-3.25 651.24-3.25L651.24-3.25Q657.79-3.25 657.79-12.75L657.79-12.75Q657.79-17.65 656.14-19.98 654.49-22.3 651.24-22.3L651.24-22.3Z" opacity="1" transform="matrix(1,0,0,1,0,0)" fill="#ffffff" class="slogan-text-1" data-fill-palette-color="secondary" id="text-1"></path></svg></g></svg></g></svg></g></svg></g><g transform="matrix(1,0,0,1,141.2675361355685,0)"><svg viewBox="0 0 114.96252772886292 128.6307417369149" height="128.6307417369149" width="114.96252772886292"><g><svg version="1.1" xmlns="http://www.w3.org/2000/svg" xmlns:xlink="http://www.w3.org/1999/xlink" x="0" y="0" viewBox="5.905 0.19995818356780798 89.375 100.0010418164322" enable-background="new 5.905 0.2 89.374 100" xml:space="preserve" width="114.96252772886292" height="128.6307417369149" class="icon-icon-0" data-fill-palette-color="accent" id="icon-0"><path d="M85.604 82.385c-1.018-1.615-3.151-2.098-4.767-1.082-7.061 4.447-15.229 6.796-23.617 6.796-24.485 0-44.405-19.921-44.405-44.405 0-15.015 7.504-28.902 20.075-37.151 1.595-1.046 2.041-3.188 0.992-4.783-1.049-1.596-3.187-2.04-4.784-0.993C14.574 10.296 5.905 26.345 5.905 43.695c0 22.882 15.061 42.313 35.789 48.908-5.863 1.671-10.086 4.401-11.305 7.598h49.38c-1.07-2.807-4.47-5.255-9.252-6.944 4.926-1.317 9.648-3.361 14.004-6.104C86.132 86.132 86.617 84.002 85.604 82.385z" fill="#ffffff" data-fill-palette-color="accent"></path><path d="M56.099 4.753c-21.638 0-39.182 17.541-39.182 39.18 0 21.641 17.544 39.181 39.182 39.181 21.638 0 39.181-17.54 39.181-39.181C95.279 22.293 77.736 4.753 56.099 4.753zM72.67 55.98c0 0.616-0.216 1.577-0.48 2.132l-2.86 6.035c-0.265 0.556-0.849 1.354-1.299 1.777l-9.315 8.696c-0.448 0.42-0.312 0.766 0.302 0.766h1.067c0.614 0 1.119 0.441 1.119 0.98 0 0.541-0.505 0.983-1.119 0.983h-4.578c-0.616 0-1.119-0.505-1.119-1.122V64.317c0-0.619 0.503-1.12 1.119-1.12h1.272c0.616 0 1.12-0.504 1.12-1.119v-1.272c0-0.617-0.504-1.121-1.12-1.121h-1.272c-0.616 0-1.119-0.503-1.119-1.118v-6.979c0-0.614-0.505-1.118-1.121-1.118h-1.894c-0.613 0-1.531-0.291-2.032-0.648l-6.024-4.261c-0.503-0.354-1.171-1.08-1.483-1.612l-2.819-4.785c-0.312-0.53-1.072-0.965-1.688-0.965H35.98c-0.616 0-1.338-0.454-1.605-1.008l-3.266-6.764c-0.263-0.553-0.485-1.51-0.485-2.128v-3.856c0-0.616-0.481-0.973-1.07-0.792l-1.313 0.404c5.684-7.945 14.675-13.359 24.949-14.229v4.651c0 0.614 0.411 1.408 0.915 1.761l2.097 1.475c0.504 0.353 1.419 0.644 2.035 0.644h1.659c0.617 0 1.12 0.406 1.12 0.904 0 0.496-0.348 1.267-0.771 1.716l-2.391 2.52c-0.426 0.445-0.268 0.812 0.349 0.813l1.595 0.004c0.614 0.001 1.118 0.505 1.118 1.122l-0.005 4.022c-0.002 0.615 0.502 1.119 1.118 1.119h1.8c0.615 0 1.12 0.382 1.12 0.851 0 0.467-0.505 0.849-1.12 0.849h-5.52c-0.614 0-1.519 0.306-2.008 0.679l-2.261 1.725c-0.489 0.373-0.891 1.182-0.891 1.798l0.002 6.689c0 0.616-0.503 1.12-1.119 1.12h-0.312c-0.615 0-1.119-0.504-1.119-1.12v-3.851c0-0.616-0.502-1.119-1.119-1.119h-3.02c-0.613 0-1.119 0.503-1.123 1.119l-0.016 3.108c-0.004 0.616 0.389 1.434 0.87 1.821l4.456 3.575c0.479 0.387 1.376 0.702 1.991 0.703l7.443 0.004c0.614 0.001 1.566 0.235 2.111 0.52l9.483 4.956c0.545 0.284 0.991 1.021 0.991 1.639v0.339H72.67zM69.795 22.44c-0.496 0.365-1.406 0.664-2.021 0.664h-0.482c-0.615 0-1.119-0.504-1.119-1.12v-3.639c0-0.616-0.502-1.119-1.119-1.119h-1.621c-0.615 0-1.119-0.504-1.119-1.119v-5.835c5.357 0.988 10.288 3.214 14.463 6.388C76.632 17.14 69.795 22.44 69.795 22.44z" fill="#ffffff" data-fill-palette-color="accent"></path></svg></g></svg></g><g></g></svg></g><defs></defs></svg><rect width="362.2207196483437" height="247.2" fill="none" stroke="none" visibility="hidden"></rect></g></svg></g></svg>